<?xml version="1.0" standalone="no"?>
<!DOCTYPE svg PUBLIC "-//W3C//DTD SVG 20010904//EN"
 "http://www.w3.org/TR/2001/REC-SVG-20010904/DTD/svg10.dtd">
<svg version="1.0" xmlns="http://www.w3.org/2000/svg"
 width="197.000000pt" height="140.000000pt" viewBox="0 0 197.000000 140.000000"
 preserveAspectRatio="xMidYMid meet">

<g transform="translate(0.000000,140.000000) scale(0.100000,-0.100000)"
fill="#567eea" stroke="none">
<path d="M1363 1375 c-114 -32 -198 -99 -245 -192 -20 -42 -23 -63 -23 -163 0
-106 2 -120 28 -172 17 -35 51 -78 88 -112 59 -55 101 -78 327 -182 110 -50
152 -95 152 -163 0 -58 -23 -92 -82 -122 -53 -27 -182 -24 -242 6 -42 20 -102
74 -127 115 l-16 24 -111 -64 -112 -63 18 -29 c100 -157 242 -235 448 -245
336 -17 525 155 492 446 -19 171 -106 252 -432 401 -49 22 -104 52 -123 65
-66 51 -67 164 -1 205 77 47 159 33 230 -40 l47 -49 97 63 c54 35 100 68 102
75 2 6 -29 44 -70 85 -93 93 -149 116 -293 122 -69 3 -116 -1 -152 -11z"/>
<path d="M568 863 c-3 -572 -2 -564 -68 -598 -42 -22 -128 -19 -167 5 -29 17
-86 85 -95 112 -2 5 -54 -20 -115 -57 l-112 -67 14 -28 c25 -48 111 -135 162
-162 86 -47 155 -61 267 -56 122 6 194 31 260 89 55 48 102 140 116 224 6 33
10 280 10 558 l0 497 -135 0 -134 0 -3 -517z"/>
</g>
</svg>
